<svg id="Capa_1" enable-background="new 0 0 512 512" height="512" viewBox="0 0 512 512" width="512" xmlns="http://www.w3.org/2000/svg" xmlns:xlink="http://www.w3.org/1999/xlink"><linearGradient id="SVGID_1_" gradientUnits="userSpaceOnUse" x1="256" x2="256" y1="512" y2="0"><stop offset="0" stop-color="#5558ff"/><stop offset="1" stop-color="#00c0ff"/></linearGradient><g><g><path d="m376 210h-180c-8.284 0-15 6.716-15 15s6.716 15 15 15h180c8.284 0 15-6.716 15-15s-6.716-15-15-15zm0 60h-180c-8.284 0-15 6.716-15 15s6.716 15 15 15h180c8.284 0 15-6.716 15-15s-6.716-15-15-15zm0 60h-180c-8.284 0-15 6.716-15 15s6.716 15 15 15h180c8.284 0 15-6.716 15-15s-6.716-15-15-15zm0 60h-180c-8.284 0-15 6.716-15 15s6.716 15 15 15h180c8.284 0 15-6.716 15-15s-6.716-15-15-15zm-240-180c-8.284 0-15 6.716-15 15s6.716 15 15 15 15-6.716 15-15-6.716-15-15-15zm0 60c-8.284 0-15 6.716-15 15s6.716 15 15 15 15-6.716 15-15-6.716-15-15-15zm0 60c-8.284 0-15 6.716-15 15s6.716 15 15 15 15-6.716 15-15-6.716-15-15-15zm0 60c-8.284 0-15 6.716-15 15s6.716 15 15 15 15-6.716 15-15-6.716-15-15-15zm300-360h-75v-15c0-8.284-6.716-15-15-15h-180c-8.284 0-15 6.716-15 15v15h-75c-8.284 0-15 6.716-15 15v452c0 8.284 6.716 15 15 15h360c8.284 0 15-6.716 15-15v-452c0-8.284-6.716-15-15-15zm-255 0h150v15c0 8.271-6.729 15-15 15h-120c-8.271 0-15-6.729-15-15zm240 452h-330v-304.58c4.695 1.665 9.741 2.58 15 2.58 11.517 0 22.032-4.354 30-11.495 7.968 7.142 18.483 11.495 30 11.495s22.032-4.354 30-11.495c7.968 7.142 18.483 11.495 30 11.495s22.032-4.354 30-11.495c7.968 7.142 18.483 11.495 30 11.495s22.032-4.354 30-11.495c7.968 7.142 18.483 11.495 30 11.495s22.032-4.354 30-11.495c7.968 7.142 18.483 11.495 30 11.495 5.259 0 10.305-.915 15-2.58zm0-347c0 8.271-6.729 15-15 15s-15-6.729-15-15c0-8.284-6.716-15-15-15s-15 6.716-15 15c0 8.271-6.729 15-15 15s-15-6.729-15-15c0-8.284-6.716-15-15-15s-15 6.716-15 15c0 8.271-6.729 15-15 15s-15-6.729-15-15c0-8.284-6.716-15-15-15s-15 6.716-15 15c0 8.271-6.729 15-15 15s-15-6.729-15-15c0-8.284-6.716-15-15-15s-15 6.716-15 15c0 8.271-6.729 15-15 15s-15-6.729-15-15c0-8.284-6.716-15-15-15s-15 6.716-15 15c0 8.271-6.729 15-15 15s-15-6.729-15-15v-75h62.58c6.192 17.458 22.865 30 42.42 30h120c19.555 0 36.228-12.542 42.42-30h62.58z" fill="url(#SVGID_1_)"/></g></g></svg>